<svg xmlns="http://www.w3.org/2000/svg" viewBox="0 0 14.74 19.56"><defs><style>.cls-1{fill:#fff;}.cls-2{fill:#231815;}</style></defs><g id="レイヤー_2" data-name="レイヤー 2"><g id="文字"><path class="cls-1" d="M14.57,18.29a19.77,19.77,0,0,1-5.52,1.1c-2-.12-6.31-.27-7.14-1.39S-.62,15,.59,10.53A5.77,5.77,0,0,1,6.75,6.15,4.44,4.44,0,0,1,10.48,8c1.08,1.41,1.17,2.45,1.1,4.78-.09,3.05.46,3.68,1.72,4.6Z"/><path class="cls-2" d="M9.33,19.56H9l-.47,0c-2.23-.12-6-.32-6.79-1.42l-.16-.21C.74,16.73-.73,14.78.43,10.48,1.23,7.5,3.32,6,6.65,6h.1a4.61,4.61,0,0,1,3.87,1.91c1.12,1.46,1.2,2.55,1.13,4.89-.09,3,.47,3.59,1.66,4.45l1.26.92a.18.18,0,0,1,.07.17.16.16,0,0,1-.11.13A20.81,20.81,0,0,1,9.33,19.56ZM6.65,6.32C3.5,6.32,1.51,7.75.76,10.57c-1.12,4.14.29,6,1.14,7.12a1.91,1.91,0,0,0,.15.21c.72,1,4.51,1.18,6.54,1.29l.47,0a17.64,17.64,0,0,0,5.14-1l-1-.72c-1.35-1-1.89-1.69-1.79-4.74.07-2.3,0-3.3-1.06-4.67a4.27,4.27,0,0,0-3.6-1.78h-.1Z"/><ellipse class="cls-1" cx="3.72" cy="10.67" rx="1.68" ry="1.91"/><path class="cls-2" d="M3.72,12.71a1.93,1.93,0,0,1-1.81-2,1.94,1.94,0,0,1,1.81-2,1.94,1.94,0,0,1,1.81,2A1.93,1.93,0,0,1,3.72,12.71Zm0-3.82a1.68,1.68,0,0,0-1.56,1.78,1.68,1.68,0,0,0,1.56,1.78,1.68,1.68,0,0,0,1.55-1.78A1.68,1.68,0,0,0,3.72,8.89Z"/><ellipse class="cls-2" cx="2.61" cy="10.84" rx="0.57" ry="0.86"/><ellipse class="cls-1" cx="8.21" cy="10.67" rx="1.68" ry="1.91"/><path class="cls-2" d="M8.21,12.71a1.94,1.94,0,0,1-1.82-2,2,2,0,0,1,1.82-2,1.94,1.94,0,0,1,1.81,2A1.93,1.93,0,0,1,8.21,12.71Zm0-3.82a1.68,1.68,0,0,0-1.56,1.78,1.68,1.68,0,0,0,1.56,1.78,1.68,1.68,0,0,0,1.55-1.78A1.68,1.68,0,0,0,8.21,8.89Z"/><ellipse class="cls-2" cx="7.09" cy="10.84" rx="0.57" ry="0.86"/><path class="cls-1" d="M8.63,2.69C8.33.48,5.84.17,5.84.17c-.36,2.29-.72,1.37-1.53,2.65s.56,2.39.56,2.39a3.37,3.37,0,0,0,.45.25,1.1,1.1,0,1,1,1.94-.71,1.09,1.09,0,0,1-.55,1A2.5,2.5,0,0,0,8.63,2.69Z"/><path class="cls-2" d="M6.71,5.87a.15.15,0,0,1-.16-.11.16.16,0,0,1,.07-.2.94.94,0,0,0,.47-.81.93.93,0,1,0-1.64.6.17.17,0,0,1,0,.21.16.16,0,0,1-.21.05,2.59,2.59,0,0,1-.46-.26,2,2,0,0,1-.61-2.63,2.55,2.55,0,0,1,.77-.82c.32-.24.51-.38.73-1.76A.17.17,0,0,1,5.86,0S8.48.35,8.8,2.67A3.1,3.1,0,0,1,8.26,5a2.3,2.3,0,0,1-1.53.91ZM6.16,3.48A1.27,1.27,0,0,1,7.43,4.75a1.24,1.24,0,0,1-.15.6,2,2,0,0,0,.7-.6,2.73,2.73,0,0,0,.48-2A2.93,2.93,0,0,0,6,.37c-.22,1.3-.45,1.52-.84,1.8a2.5,2.5,0,0,0-.69.74A1.67,1.67,0,0,0,4.92,5a1.24,1.24,0,0,1,0-.27A1.27,1.27,0,0,1,6.16,3.48Z"/></g></g></svg>